<svg width="235" height="251" viewBox="0 0 235 251" fill="none" xmlns="http://www.w3.org/2000/svg">
<path d="M208.895 8C208.895 12.4183 212.476 16 216.895 16C221.313 16 224.895 12.4183 224.895 8C224.895 3.58172 221.313 -9.53674e-07 216.895 -9.53674e-07C212.476 -9.53674e-07 208.895 3.58172 208.895 8ZM163.675 85.238L163.418 83.7603L163.675 85.238ZM50.2071 162.476L51.6893 162.246L50.2071 162.476ZM0 251L16.9458 247.417L5.36986 234.533L0 251ZM215.859 9.08523C220.772 13.7727 225.497 19.8508 228.444 26.5358C231.388 33.2141 232.524 40.4137 230.419 47.45C226.22 61.4906 208.738 75.8718 163.418 83.7603L163.932 86.7158C209.386 78.804 228.556 64.1475 233.294 48.3097C235.657 40.4068 234.333 32.4572 231.189 25.3257C228.049 18.2008 223.059 11.8086 217.93 6.91477L215.859 9.08523ZM163.418 83.7603C135.031 88.7014 113.281 93.3861 96.7317 98.2987C80.2002 103.206 68.7425 108.373 61.0256 114.338C53.2467 120.351 49.2914 127.16 47.7532 135.197C46.2332 143.14 47.0919 152.206 48.7249 162.707L51.6893 162.246C50.0589 151.762 49.2858 143.149 50.6998 135.761C52.0956 128.467 55.6399 122.293 62.8604 116.712C70.1429 111.082 81.1842 106.043 97.5855 101.175C113.969 96.3113 135.586 91.6499 163.932 86.7158L163.418 83.7603ZM48.7249 162.707C50.846 176.345 45.8378 191.154 37.7373 205.024C29.6548 218.863 18.6114 231.565 8.9939 240.904L11.0839 243.056C20.828 233.594 32.0673 220.681 40.3279 206.537C48.5703 192.424 53.9655 176.882 51.6893 162.246L48.7249 162.707Z" fill="#72643E"/>
</svg>
